<?xml version="1.0" encoding="UTF-8"?><svg xmlns="http://www.w3.org/2000/svg" viewBox="0 0 2652.38 556.64"><defs><style>.d{opacity:.7;}.e{opacity:.5;}.f{opacity:.3;}.g{opacity:.1;}</style></defs><g id="a"/><g id="b"><g id="c"><g><g><g><path d="M529.82,453.21c35.32-2.91,34.96-4,34.96-22.21V223.45c0-18.93,0-19.66-34.96-22.58v-.73h94.67c90.3,0,136.18,49.16,136.18,122.71,0,78.29-47.34,131.08-136.91,131.08h-93.94v-.73Zm91.39-.73c75.37,0,115.43-33.5,115.43-127.44s-41.51-123.44-115.43-123.44h-34.59v250.88h34.59Z"/><path d="M882,425.18c-16.02,17.11-34.59,31.68-60.08,31.68-21.85,0-40.05-13.84-40.05-36.78,0-20.03,11.65-31.68,28.4-40.42,21.48-10.92,47.7-14.2,71.73-16.75v-36.05c0-28.04-15.29-38.23-34.59-38.23-17.11,0-32.77,6.55-41.51,19.3,7.65,0,13.11,5.46,13.11,14.2,0,8.01-6.55,14.2-14.93,14.2-7.28,0-13.47-6.55-13.47-14.93,0-18.57,27.31-34.59,58.62-34.59,29.49,0,51.71,16.02,51.71,43.69v93.21c0,27.31,9.83,36.05,28.76,22.21l.73,.73c-5.83,5.83-14.2,9.47-22.58,9.47-16.02,0-26.95-5.83-25.85-30.95Zm0-2.55v-57.9c-20.03,1.82-43.69,5.1-60.08,13.47-14.93,7.65-20.75,18.57-20.75,36.78,0,20.03,13.47,30.95,32.04,30.95s36.05-8.74,48.79-23.3Z"/><path d="M938.4,453.21c25.85-1.46,30.95-3.28,30.95-18.21V211.07c0-10.56-2.18-13.11-28.4-16.02v-.73l47.34-1.46v242.14c0,14.93,5.1,16.75,30.95,18.21v.73h-80.83v-.73Z"/><path d="M1028.3,453.21c25.85-1.46,30.95-3.28,30.95-18.21v-128.9c0-11.29-.36-12.74-30.95-15.66v-.73l49.88-2.55v147.83c0,14.93,5.1,16.75,30.95,18.21v.73h-80.83v-.73Zm24.03-221.02c0-7.65,5.46-14.57,14.2-14.57s14.2,6.92,14.2,14.93c0,8.74-5.1,14.57-14.2,14.57s-14.2-5.83-14.2-14.93Z"/><path d="M1218.51,425.18c-16.02,17.11-34.59,31.68-60.08,31.68-21.85,0-40.05-13.84-40.05-36.78,0-20.03,11.65-31.68,28.4-40.42,21.48-10.92,47.7-14.2,71.73-16.75v-36.05c0-28.04-15.29-38.23-34.59-38.23-17.11,0-32.77,6.55-41.51,19.3,7.65,0,13.11,5.46,13.11,14.2,0,8.01-6.55,14.2-14.93,14.2-7.28,0-13.47-6.55-13.47-14.93,0-18.57,27.31-34.59,58.62-34.59,29.49,0,51.71,16.02,51.71,43.69v93.21c0,27.31,9.83,36.05,28.76,22.21l.73,.73c-5.83,5.83-14.2,9.47-22.58,9.47-16.02,0-26.95-5.83-25.85-30.95Zm0-2.55v-57.9c-20.03,1.82-43.69,5.1-60.08,13.47-14.93,7.65-20.75,18.57-20.75,36.78,0,20.03,13.47,30.95,32.04,30.95s36.05-8.74,48.79-23.3Z"/></g><g><path d="M1280.27,453.21c32.77-1.09,37.5-3.64,37.5-22.21V223.45c0-18.93-4.73-21.48-37.5-22.58v-.73h190.07l1.09,57.17h-1.46c-19.66-50.98-25.49-55.71-40.42-55.71h-89.94v119.8h53.16c13.47,0,29.13-5.1,32.77-40.05h1.46v81.56h-1.46c-3.64-34.96-19.3-40.05-32.77-40.05h-53.16v129.63h99.41c18.21,0,22.94-2.55,40.05-58.99h1.46l-2.18,60.44h-198.08v-.73Z"/><path d="M1574.26,453.94h-76.83v-.73c24.4-1.82,29.13-4.37,29.13-14.56v-132.54c0-11.29-.36-12.74-29.13-15.66v-.73l48.06-2.55v38.6c14.93-18.57,33.5-38.96,60.81-38.96,23.3,0,37.5,15.29,40.42,38.96,14.93-18.57,33.5-38.96,60.81-38.96s41.87,19.66,41.87,48.79v103.05c0,9.83,4.37,12.38,26.58,14.56v.73h-73.92v-.73c23.67-1.82,28.4-4.37,28.4-14.56v-96.86c0-28.04-8.01-45.15-31.31-45.15-20.75,0-37.87,13.47-52.07,32.04,.36,2.19,.36,4.73,.36,6.92,.73,0,0,103.05,0,103.05,0,9.83,4.37,12.38,28.4,14.56v.73h-75.01v-.73c22.94-1.82,27.67-4.37,27.67-14.56v-96.86c0-28.04-7.65-45.15-30.59-45.15-20.75,0-37.87,13.47-52.43,32.77v109.24c0,10.2,4.73,12.38,28.77,14.56v.73Z"/><path d="M1769.5,523.12c23.67-1.82,29.13-3.28,29.13-14.56v-202.45c0-11.29-.36-12.74-29.13-15.66v-.73l48.06-2.55v30.95c15.29-18.21,34.96-30.95,56.44-30.95,40.05,0,67,33.86,67,80.11,0,51.71-32.77,89.57-77.92,89.57-20.75,0-33.5-8.01-45.51-16.39v68.09c0,10.92,4.37,12.74,30.95,14.56v.73h-79.01v-.73Zm151.47-150.38c0-43.69-26.22-75.74-59.72-75.74-16.02,0-26.58,6.92-43.69,23.3v108.51c8.01,16.38,25.85,26.22,44.79,26.22,33.86,0,58.62-34.23,58.62-82.29Z"/><path d="M1961.1,372.38c0-50.25,33.13-87.02,78.65-87.02s78.29,36.05,78.29,85.93-33.5,87.02-79.01,87.02-77.92-36.05-77.92-85.93Zm135.82,0c0-60.08-26.94-85.2-58.99-85.2s-55.71,24.76-55.71,84.48,26.94,84.84,58.99,84.84,55.71-24.4,55.71-84.11Z"/><path d="M2247.15,345.07l-47.7,116.15h-2.18l-57.17-148.92c-7.28-18.93-8.74-20.39-30.22-22.58v-.73h69.55v.73c-24.4,1.46-26.58,4.37-19.66,22.94l47.33,124.17,38.96-94.67-10.92-29.86c-6.55-17.84-11.29-21.85-29.49-22.58v-.73h70.28v.73c-24.03,.73-29.13,2.91-21.85,22.58l45.15,122.34,42.6-118.7c8.01-21.85,4.01-25.49-18.57-26.22v-.73h51.71v.73c-18.57,1.82-24.03,6.92-29.13,21.12l-53.53,150.38h-2.19l-42.97-116.15Z"/><path d="M2438.89,458.31c-45.15,0-73.92-33.86-73.92-82.66s34.59-90.3,75.74-90.3,67,29.49,64.81,72.82h-118.7c-.36,4.73-.73,10.2-.73,15.29,0,50.25,24.76,75.74,61.17,75.74,27.31,0,45.15-14.2,55.35-35.32l1.09,.36c-11.65,26.22-33.86,44.06-64.81,44.06Zm-51.71-102.32h98.68c0-36.78-12.38-68.82-45.15-68.82-28.4,0-49.16,28.04-53.53,68.82Z"/><path d="M2510.4,453.94v-.73c25.85-1.82,30.95-2.55,30.95-14.56v-132.54c0-11.29-.36-12.74-32.41-15.66v-.73l51.34-2.55v38.96c14.93-24.76,36.05-40.78,53.89-40.78,12.38,0,18.57,8.74,18.57,17.11s-5.46,15.29-13.84,15.29-13.84-5.83-13.84-13.11c0-5.83,3.64-11.65,10.2-14.2-14.57-2.91-38.23,10.2-54.98,39.33v108.87c0,12.02,5.46,12.74,34.59,14.56v.73h-84.48Z"/></g><g><g class="g"><path d="M445.95,461.69V0s-306.93,268.24,0,461.69Z"/></g><g class="f"><path d="M250.84,46.97S86.03,419.79,445.95,465.4L250.84,46.97"/></g><g class="e"><path d="M92.28,172.06s8.19,407.54,353.67,296.77L92.28,172.06"/></g><g class="d"><path d="M0,351.86s179.66,365.9,445.95,119.49L0,351.86"/></g></g></g><path d="M2652.38,438.3c0,8.87-6.97,15.84-16.03,15.84s-16.13-6.97-16.13-15.84,7.16-15.65,16.13-15.65,16.03,6.97,16.03,15.65Zm-28.15,0c0,6.97,5.15,12.5,12.21,12.5s11.93-5.54,11.93-12.41-5.06-12.6-12.02-12.6-12.12,5.63-12.12,12.5Zm9.64,8.21h-3.63v-15.65c1.43-.29,3.44-.48,6.01-.48,2.96,0,4.3,.48,5.44,1.14,.86,.67,1.53,1.91,1.53,3.44,0,1.72-1.34,3.05-3.25,3.63v.19c1.53,.57,2.39,1.72,2.86,3.82,.48,2.39,.76,3.34,1.14,3.91h-3.91c-.48-.57-.76-2-1.24-3.82-.29-1.72-1.24-2.48-3.25-2.48h-1.72v6.3Zm.1-8.87h1.72c2,0,3.63-.67,3.63-2.29,0-1.43-1.05-2.39-3.34-2.39-.95,0-1.62,.1-2,.19v4.48Z"/></g></g></g></svg>